<?xml version="1.0" standalone="no"?>
<!DOCTYPE svg PUBLIC "-//W3C//DTD SVG 20010904//EN"
 "http://www.w3.org/TR/2001/REC-SVG-20010904/DTD/svg10.dtd">
<svg version="1.0" xmlns="http://www.w3.org/2000/svg"
 width="398.000000pt" height="398.000000pt" viewBox="0 0 398.000000 398.000000"
 preserveAspectRatio="xMidYMid meet">

<g transform="translate(0.000000,398.000000) scale(0.100000,-0.100000)"
fill="#000000" stroke="none">
<path d="M2080 3074 c-14 -2 -59 -9 -100 -15 -73 -11 -415 -94 -515 -126 -75
-23 -139 -68 -196 -137 -28 -33 -76 -80 -106 -104 -69 -55 -103 -122 -103
-204 0 -32 -7 -100 -16 -150 -20 -112 -14 -248 17 -399 11 -55 19 -101 17
-102 -68 -35 -80 -44 -98 -82 -36 -75 -19 -267 33 -370 37 -74 111 -166 150
-186 20 -11 37 -26 37 -34 0 -31 39 -125 71 -172 18 -26 75 -92 127 -145 l95
-97 -32 -36 c-17 -20 -31 -40 -31 -44 0 -5 21 -22 47 -37 59 -34 70 -29 -207
-94 -118 -28 -233 -55 -254 -61 l-40 -11 25 -19 c13 -10 29 -17 34 -15 6 2
128 32 273 66 l263 63 40 -39 c25 -24 44 -54 50 -80 9 -36 16 -43 67 -67 31
-14 58 -24 60 -22 2 2 -21 18 -52 35 -38 22 -56 38 -56 51 0 37 -29 76 -116
158 l-88 82 25 24 24 24 65 -60 c48 -43 60 -59 45 -59 -11 1 -31 7 -45 15 -53
30 -41 12 51 -83 116 -117 190 -205 247 -294 39 -60 72 -91 72 -69 0 20 -111
171 -203 278 -91 105 -96 113 -71 113 15 0 52 -12 83 -27 53 -27 64 -28 196
-28 132 0 143 1 196 27 31 16 70 28 88 28 l32 0 -90 -100 c-92 -102 -211 -265
-211 -287 0 -22 18 -14 36 16 10 17 22 27 27 24 6 -3 7 -2 4 4 -14 22 193 278
295 364 58 50 63 68 9 39 -71 -41 -74 -19 -4 44 l65 59 25 -26 26 -25 -39 -33
c-91 -77 -154 -152 -160 -191 -6 -32 -13 -41 -51 -60 -68 -34 -73 -52 -6 -21
54 25 61 32 71 69 13 48 70 114 98 114 11 0 131 -29 269 -64 229 -58 251 -62
272 -49 28 19 22 30 -20 38 -17 3 -132 31 -254 62 -237 60 -241 62 -168 98 19
9 35 22 35 29 0 6 -16 27 -35 46 l-34 33 102 106 c108 112 170 210 183 288 5
34 11 42 40 52 37 13 122 121 156 198 42 96 61 262 37 334 -15 43 -54 86 -86
94 -20 5 -24 10 -19 28 29 109 32 454 6 617 -24 147 -129 287 -264 351 -47 22
-65 38 -81 67 -43 83 -105 135 -193 162 -59 18 -195 32 -242 24z m-50 -643
c173 7 473 5 502 -3 80 -23 111 -88 128 -271 5 -61 21 -144 35 -188 23 -75 25
-93 25 -292 0 -117 -5 -242 -10 -279 -10 -69 -69 -209 -111 -263 -19 -24 -24
-25 -29 -11 -4 14 -12 8 -38 -28 -32 -45 -57 -62 -46 -31 4 8 1 15 -4 15 -6 0
-14 -10 -17 -21 -7 -20 -9 -18 -29 17 -25 45 -81 79 -143 89 -27 4 -98 -2
-188 -16 l-144 -22 -149 23 c-189 28 -245 20 -304 -42 -21 -21 -38 -45 -38
-53 0 -22 -16 -18 -28 8 -9 19 -11 20 -11 3 -1 -19 -1 -19 -22 0 -12 10 -30
33 -40 49 -13 21 -19 25 -19 13 0 -45 -37 -5 -88 98 -40 80 -52 187 -52 472 0
204 2 223 24 288 15 45 26 104 30 169 9 132 22 186 54 225 46 55 91 61 367 54
132 -4 287 -5 345 -3z m-930 -670 c0 -11 3 -27 7 -36 6 -16 4 -16 -19 -1 -37
24 -41 8 -5 -23 l31 -28 -18 -57 c-12 -36 -16 -69 -12 -91 9 -48 22 -51 18 -5
-4 40 14 110 28 110 17 0 29 -60 33 -174 l5 -118 -30 28 c-26 25 -29 26 -19 6
6 -12 23 -29 36 -38 20 -13 25 -25 25 -56 0 -35 -2 -39 -15 -28 -24 20 -102
133 -118 172 -53 127 -50 329 5 351 29 12 48 7 48 -12z m1789 0 c11 -11 23
-36 27 -57 9 -51 -1 -179 -21 -241 -17 -56 -106 -197 -134 -212 -15 -8 -16 -5
-13 27 2 22 13 45 26 57 12 11 28 29 36 40 8 11 0 7 -17 -9 l-32 -29 6 129 c3
71 10 137 15 148 9 17 11 17 26 2 11 -11 16 -34 17 -75 0 -63 8 -72 19 -20 4
19 -1 57 -11 92 l-16 60 31 28 c38 34 26 48 -14 17 -24 -19 -27 -20 -21 -4 4
10 10 29 13 42 8 29 36 32 63 5z m-970 -708 c111 -4 171 -1 258 13 81 12 122
15 141 8 25 -9 27 -14 26 -67 -2 -102 -68 -170 -195 -204 -63 -16 -68 -16 -93
1 -38 24 -29 38 35 51 75 15 132 47 171 96 18 23 44 53 58 66 24 24 24 25 6
38 -16 12 -23 12 -45 1 -101 -52 -417 -57 -600 -10 -54 15 -91 11 -91 -8 0 -5
8 -12 18 -15 10 -2 30 -24 45 -47 42 -67 143 -126 216 -126 43 0 55 -14 31
-35 -48 -43 -190 -7 -268 68 -44 42 -62 78 -62 125 0 72 32 87 140 64 36 -7
130 -16 209 -19z m-143 -58 c147 -22 308 -19 459 10 l40 8 -30 -35 c-45 -54
-111 -86 -200 -99 -157 -21 -296 18 -355 100 -12 17 -20 31 -17 31 2 0 48 -7
103 -15z"/>
<path d="M1460 2028 c-61 -32 -139 -148 -99 -148 7 0 33 13 58 28 25 16 61 34
80 40 54 19 170 15 246 -9 55 -17 69 -18 76 -7 13 19 6 30 -31 56 -89 60 -251
80 -330 40z"/>
<path d="M2234 2030 c-61 -20 -125 -56 -131 -75 -1 -5 1 -16 6 -23 7 -11 21
-10 76 7 44 14 94 21 145 21 72 0 85 -3 159 -42 45 -22 84 -38 88 -35 20 20
-59 124 -112 148 -53 24 -152 24 -231 -1z"/>
<path d="M1428 1736 c-26 -7 -54 -18 -62 -25 -14 -12 -13 -17 6 -45 58 -84 61
-86 177 -86 58 -1 126 -5 151 -9 37 -8 51 -6 87 13 l42 23 -29 46 c-16 25 -42
52 -57 61 -67 34 -227 46 -315 22z m85 -50 c-3 -13 2 -38 11 -55 l17 -31 -34
0 c-41 0 -81 29 -95 69 -12 33 -5 37 69 40 33 1 36 -1 32 -23z m97 14 c0 -5
-9 -10 -19 -10 -11 0 -23 5 -26 10 -4 6 5 10 19 10 14 0 26 -4 26 -10z m148
-45 c36 -34 36 -36 18 -50 -20 -15 -87 -21 -99 -9 -3 4 0 16 8 28 8 11 15 31
15 43 0 32 14 29 58 -12z"/>
<path d="M2260 1737 c-76 -18 -97 -31 -130 -84 l-29 -46 45 -24 c24 -13 50
-21 56 -17 6 4 75 10 152 13 l140 6 42 55 c23 30 40 59 37 64 -22 36 -213 56
-313 33z m65 -37 c-3 -5 -15 -10 -26 -10 -11 0 -17 5 -14 10 3 6 15 10 26 10
11 0 17 -4 14 -10z m173 4 c28 -6 30 -8 20 -35 -15 -42 -54 -69 -101 -69 -39
0 -40 1 -23 19 10 11 18 36 19 55 1 32 4 36 28 36 14 0 40 -3 57 -6z m-268
-37 c0 -12 7 -32 15 -43 8 -12 11 -24 8 -28 -12 -12 -79 -6 -99 9 -18 14 -18
16 18 50 44 41 58 44 58 12z"/>
<path d="M2067 1531 c-6 -117 5 -181 16 -90 9 70 8 149 -2 174 -5 12 -10 -20
-14 -84z"/>
<path d="M1798 1283 c-27 -53 -2 -98 48 -88 28 5 35 1 54 -25 18 -25 28 -30
64 -30 35 0 46 5 64 30 18 24 27 28 50 24 19 -4 34 0 45 11 20 20 22 68 4 84
-11 9 -14 3 -13 -32 l1 -42 -36 3 c-30 2 -41 -3 -62 -28 -35 -41 -78 -41 -108
1 -19 27 -26 30 -55 24 -29 -5 -36 -3 -45 18 -8 18 -8 30 1 47 6 12 9 24 7 27
-3 3 -12 -8 -19 -24z"/>
<path d="M2446 253 c-6 -14 -5 -15 5 -6 7 7 10 15 7 18 -3 3 -9 -2 -12 -12z"/>
<path d="M1831 237 c-18 -23 -2 -49 28 -45 20 2 26 8 26 28 0 29 -34 40 -54
17z m44 -17 c0 -8 -8 -16 -17 -18 -13 -2 -18 3 -18 18 0 15 5 20 18 18 9 -2
17 -10 17 -18z"/>
<path d="M2068 213 c7 -3 16 -2 19 1 4 3 -2 6 -13 5 -11 0 -14 -3 -6 -6z"/>
</g>
</svg>
